<svg version="1.1" xmlns="http://www.w3.org/2000/svg" viewBox="57 129.88 1857.14 325.16"> <path d="M0 0 C1.2494778 -0.0001808 1.2494778 -0.0001808 2.52419758 -0.00036526 C5.22164387 0.00038137 7.91902114 0.00799827 10.61645508 0.01586914 C12.28137173 0.01733933 13.94628885 0.01835957 15.61120605 0.0189209 C21.78613986 0.02416482 27.96106377 0.03812601 34.13598633 0.05102539 C47.93411133 0.07165039 61.73223633 0.09227539 75.94848633 0.11352539 C75.94848633 36.41352539 75.94848633 72.71352539 75.94848633 110.11352539 C76.60848633 110.11352539 77.26848633 110.11352539 77.94848633 110.11352539 C78.30620117 109.25694336 78.30620117 109.25694336 78.67114258 108.38305664 C83.29607017 100.16567764 93.06337831 94.78887362 100.94848633 90.11352539 C101.72450195 89.60692383 102.50051758 89.10032227 103.30004883 88.57836914 C123.29985752 77.51652805 151.44594788 77.11040996 172.94848633 83.11352539 C173.98875977 83.39196289 175.0290332 83.67040039 176.10083008 83.95727539 C192.17395565 88.75645832 207.00964125 99.78845315 215.94848633 114.11352539 C225.42894624 131.92870243 227.27106952 149.86108311 227.19140625 169.67749023 C227.19248273 171.26279275 227.19442682 172.84809486 227.19715881 174.43339539 C227.20194637 178.68248675 227.19443292 182.93147076 227.18420577 187.18054914 C227.17534185 191.64385297 227.1771842 196.10715426 227.17756653 200.57046509 C227.17663478 208.04609957 227.16801007 215.52169305 227.15429688 222.99731445 C227.13849587 231.64314558 227.1333018 240.28893215 227.13403243 248.93477666 C227.13470665 258.15935665 227.12778193 267.38391947 227.11858582 276.60849428 C227.11645356 279.26385214 227.11574457 281.91920725 227.11534691 284.57456589 C227.11434538 288.73285118 227.1082645 292.89109884 227.09818077 297.04937172 C227.09525235 298.57724718 227.09403109 300.10512698 227.09460831 301.63300514 C227.0950966 303.71154379 227.08946753 305.7899759 227.0821991 307.86849976 C227.08052325 309.03314444 227.07884741 310.19778912 227.07712078 311.39772606 C226.94848633 314.11352539 226.94848633 314.11352539 225.94848633 316.11352539 C197.23848633 316.11352539 168.52848633 316.11352539 138.94848633 316.11352539 C138.31809821 307.91847981 137.80653549 300.00127226 137.85083008 291.82568359 C137.85302048 290.25686684 137.85302048 290.25686684 137.85525513 288.65635681 C137.85902768 286.41011892 137.86510799 284.16388389 137.87332153 281.91765785 C137.88623564 278.3453423 137.89263929 274.77306449 137.89746094 271.20072937 C137.91074095 262.32831874 137.93490383 253.4559442 137.9588623 244.58355713 C137.97873212 237.07408529 137.99431568 229.56462724 138.00442505 222.05513573 C138.01082104 218.56694901 138.02332827 215.07882061 138.03613281 211.59065247 C138.05874764 202.01026129 138.02955021 192.44897793 137.52270508 182.87988281 C137.46736351 181.80848918 137.46736351 181.80848918 137.41090393 180.71545124 C136.87569638 172.03940158 134.69330757 163.8365189 128.94848633 157.11352539 C122.66991254 151.93144893 114.7747736 151.59083111 106.94848633 152.11352539 C97.73973981 153.02247934 90.69747642 156.5341911 84.63598633 163.61352539 C76.74136529 175.0387964 76.81072803 190.26855138 76.74316406 203.60986328 C76.72831467 205.44062912 76.72831467 205.44062912 76.71316528 207.30838013 C76.6871411 210.62798382 76.66521267 213.94756556 76.6451633 217.26720738 C76.62316152 220.74655837 76.59584287 224.22586769 76.56910706 227.70518494 C76.51937066 234.28160744 76.47436189 240.85805331 76.43108469 247.43452114 C76.37668177 255.66284023 76.31590936 263.89111075 76.25512695 272.11938477 C76.14682666 286.78406085 76.0481023 301.44878204 75.94848633 316.11352539 C47.23848633 316.11352539 18.52848633 316.11352539 -11.05151367 316.11352539 C-12.09428997 312.9851965 -12.17228212 310.82163453 -12.16503906 307.54052734 C-12.16492577 305.82909294 -12.16492577 305.82909294 -12.16481018 304.08308411 C-12.1596489 302.85176254 -12.15448761 301.62044098 -12.14916992 300.35180664 C-12.14775497 299.09087692 -12.14634003 297.8299472 -12.1448822 296.5308075 C-12.14022942 293.18200831 -12.13124709 289.83327728 -12.12017822 286.48449707 C-12.10994055 283.06592396 -12.10537953 279.6473438 -12.1003418 276.22875977 C-12.08930466 269.52366278 -12.07256054 262.81859802 -12.05151367 256.11352539 C-12.47497826 256.88872276 -12.47497826 256.88872276 -12.90699768 257.67958069 C-14.20269039 260.04637362 -15.50400262 262.41003199 -16.80541992 264.77368164 C-17.2493811 265.58663696 -17.69334229 266.39959229 -18.15075684 267.23718262 C-21.55982326 273.41484318 -25.25793066 278.91084253 -30.05151367 284.11352539 C-30.85975586 285.00168945 -31.66799805 285.88985352 -32.50073242 286.80493164 C-53.49602343 308.84232468 -82.84610827 321.01431709 -113.16943359 322.23950195 C-147.53724831 323.03916541 -180.13983556 317.01352478 -207.05151367 294.11352539 C-208.73647358 292.465355 -210.40579134 290.80087644 -212.05151367 289.11352539 C-212.81463867 288.37102539 -213.57776367 287.62852539 -214.36401367 286.86352539 C-220.35505009 280.73316255 -225.65519482 274.48714689 -230.42651367 267.36352539 C-230.85536865 266.72560059 -231.28422363 266.08767578 -231.72607422 265.43041992 C-233.91932751 262.09044474 -235.73143992 258.9141773 -237.05151367 255.11352539 C-237.60838867 256.22469727 -238.16526367 257.33586914 -238.73901367 258.48071289 C-243.13055181 267.09708323 -247.60200671 274.83576595 -254.05151367 282.11352539 C-254.63288086 282.82508789 -255.21424805 283.53665039 -255.81323242 284.26977539 C-257.17303991 285.92920148 -258.60493144 287.52917342 -260.05151367 289.11352539 C-260.71151367 289.11352539 -261.37151367 289.11352539 -262.05151367 289.11352539 C-262.05151367 289.77352539 -262.05151367 290.43352539 -262.05151367 291.11352539 C-287.10769829 315.208186 -324.14966532 323.79373384 -357.89770508 323.39697266 C-387.96875781 322.59672873 -419.71170759 315.14541734 -442.87963867 294.99633789 C-445.10696849 292.98563488 -445.10696849 292.98563488 -448.05151367 291.11352539 C-448.05151367 290.45352539 -448.05151367 289.79352539 -448.05151367 289.11352539 C-449.04151367 288.78352539 -450.03151367 288.45352539 -451.05151367 288.11352539 C-451.05151367 287.45352539 -451.05151367 286.79352539 -451.05151367 286.11352539 C-451.71151367 286.11352539 -452.37151367 286.11352539 -453.05151367 286.11352539 C-454.04151367 284.79352539 -455.03151367 283.47352539 -456.05151367 282.11352539 C-456.38151367 293.66352539 -456.71151367 305.21352539 -457.05151367 317.11352539 C-463.59106009 318.748412 -470.33834951 318.80331215 -477.05151367 319.17602539 C-477.84052063 319.22021606 -478.62952759 319.26440674 -479.44244385 319.30993652 C-491.77025099 319.98367525 -504.08073175 320.32936594 -516.42651367 320.36352539 C-517.53325439 320.37115402 -517.53325439 320.37115402 -518.66235352 320.37893677 C-531.24614951 320.4491557 -543.81078935 319.86156658 -555.73901367 315.48852539 C-556.44598389 315.23490234 -557.1529541 314.9812793 -557.88134766 314.7199707 C-564.32880409 312.26505382 -570.03551566 308.92368331 -575.05151367 304.11352539 C-575.05151367 303.45352539 -575.05151367 302.79352539 -575.05151367 302.11352539 C-575.71151367 302.11352539 -576.37151367 302.11352539 -577.05151367 302.11352539 C-590.50257583 287.10390187 -592.23085571 266.52838377 -592.16503906 247.32983398 C-592.16518509 246.19695953 -592.16533112 245.06408508 -592.16548157 243.8968811 C-592.16478981 240.18522162 -592.15703215 236.47361351 -592.14916992 232.76196289 C-592.14730312 230.17550687 -592.14588046 227.5890505 -592.1448822 225.00259399 C-592.14146566 218.91137106 -592.13359947 212.82016905 -592.12353271 206.72895396 C-592.11231344 199.78810696 -592.10684654 192.84725904 -592.10183728 185.90640521 C-592.09141509 171.64210061 -592.07309304 157.37781737 -592.05151367 143.11352539 C-599.31151367 143.11352539 -606.57151367 143.11352539 -614.05151367 143.11352539 C-614.03272156 146.12120781 -614.03272156 146.12120781 -614.0135498 149.18965149 C-613.89545193 168.096473 -613.77773347 187.00329684 -613.66036224 205.91012287 C-613.60001323 215.63002448 -613.53953744 225.34992528 -613.47875977 235.06982422 C-613.42576586 243.5449523 -613.37301333 252.02008185 -613.32054663 260.49521321 C-613.29277617 264.97972834 -613.26488758 269.46424267 -613.23670959 273.94875526 C-613.21014816 278.17660406 -613.18391141 282.40445475 -613.15791512 286.63230705 C-613.14835922 288.17735492 -613.13868848 289.72240208 -613.12888908 291.26744843 C-613.10724545 294.68449077 -613.08732842 298.10150328 -613.07139587 301.51857948 C-613.05855601 303.84018424 -613.03883534 306.16176584 -613.01075745 308.48323631 C-612.99715431 309.97456298 -612.99715431 309.97456298 -612.98327637 311.49601746 C-612.97250313 312.34829516 -612.96172989 313.20057287 -612.95063019 314.07867718 C-613.05151367 316.11352539 -613.05151367 316.11352539 -614.05151367 318.11352539 C-623.97008184 318.26765367 -633.88871955 318.415832 -643.80748844 318.55648899 C-648.41353777 318.62199228 -653.01953869 318.68951749 -657.62548828 318.76171875 C-662.07338468 318.83136711 -666.52132973 318.89563206 -670.96935844 318.95622063 C-672.66337325 318.98023101 -674.35736206 319.00615622 -676.05131721 319.03405952 C-678.43032906 319.07291488 -680.80934359 319.10486003 -683.18847656 319.13525391 C-684.23073647 319.15467293 -684.23073647 319.15467293 -685.29405212 319.17448425 C-689.67113673 319.22134639 -693.74903727 318.82662241 -698.05151367 318.11352539 C-698.24864713 314.36396665 -698.43254527 310.61387235 -698.61401367 306.86352539 C-698.67008789 305.80004883 -698.72616211 304.73657227 -698.78393555 303.64086914 C-698.83227539 302.61606445 -698.88061523 301.59125977 -698.93041992 300.53540039 C-698.97755127 299.59277344 -699.02468262 298.65014648 -699.07324219 297.67895508 C-699.05301625 295.29093083 -698.7461197 293.38678147 -698.05151367 291.11352539 C-700.58885803 293.6326809 -703.10079318 296.16556824 -705.55932617 298.76196289 C-711.54223476 304.99490347 -717.44969955 309.87298193 -725.05151367 314.11352539 C-725.83913086 314.5737207 -726.62674805 315.03391602 -727.43823242 315.50805664 C-747.14204556 326.28815936 -775.33307268 327.32631179 -796.80541992 322.08618164 C-810.85455682 317.87651246 -822.66544829 311.62035897 -833.05151367 301.11352539 C-833.38151367 300.45352539 -833.71151367 299.79352539 -834.05151367 299.11352539 C-833.23752491 303.83466019 -831.62531081 308.04339109 -829.89135742 312.49243164 C-829.05151367 315.11352539 -829.05151367 315.11352539 -829.05151367 319.11352539 C-862.05151367 319.11352539 -895.05151367 319.11352539 -929.05151367 319.11352539 C-941.05151367 280.11352539 -941.05151367 280.11352539 -941.05151367 275.11352539 C-974.05151367 275.11352539 -1007.05151367 275.11352539 -1041.05151367 275.11352539 C-1041.71151367 278.41352539 -1042.37151367 281.71352539 -1043.05151367 285.11352539 C-1043.79476393 287.77347745 -1044.55923943 290.39262065 -1045.39916992 293.01977539 C-1045.6159288 293.71115601 -1045.83268768 294.40253662 -1046.05601501 295.11486816 C-1046.50823066 296.55398532 -1046.962876 297.9923412 -1047.41992188 299.42993164 C-1048.12092915 301.6352813 -1048.81436035 303.84290706 -1049.5065918 306.05102539 C-1049.94952089 307.45741098 -1050.39286483 308.86366599 -1050.83666992 310.26977539 C-1051.04397232 310.92804321 -1051.25127472 311.58631104 -1051.46485901 312.26452637 C-1052.21645003 314.62487742 -1052.94179174 316.89408153 -1054.05151367 319.11352539 C-1056.80186462 319.5229187 -1056.80186462 319.5229187 -1060.49658203 319.73022461 C-1061.16552711 319.76782331 -1061.83447218 319.80542202 -1062.52368832 319.84416008 C-1070.65550368 320.25973439 -1078.79022287 320.25814357 -1086.93041992 320.24633789 C-1088.59854649 320.24701369 -1090.26667296 320.24798599 -1091.93479919 320.24923706 C-1095.39794877 320.2506974 -1098.86107225 320.24861123 -1102.32421875 320.24389648 C-1106.75229971 320.2381597 -1111.18032056 320.2415135 -1115.60839939 320.24746895 C-1119.0391027 320.25108552 -1122.46979178 320.24993162 -1125.90049553 320.24734116 C-1127.53390447 320.246677 -1129.16731472 320.24748231 -1130.80072212 320.24982071 C-1133.07779496 320.25236973 -1135.35477034 320.24847682 -1137.63183594 320.24291992 C-1138.92340103 320.24212433 -1140.21496613 320.24132874 -1141.54566956 320.24050903 C-1144.80750334 320.12236358 -1147.85123124 319.73422427 -1151.05151367 319.11352539 C-1148.9906374 311.94241757 -1146.61396831 304.93197041 -1144.05151367 297.92602539 C-1141.47371154 290.83039267 -1138.90705972 283.73168425 -1136.40307617 276.60961914 C-1131.43546482 262.48987343 -1126.32364006 248.44858659 -1120.96826172 234.47045898 C-1117.83830536 226.27164517 -1114.88553064 218.02872498 -1112.04345703 209.72631836 C-1109.04971727 201.01322936 -1105.84511803 192.38313674 -1102.62597656 183.7512207 C-1100.33436252 177.59946284 -1098.08163466 171.43938256 -1095.92651367 165.23852539 C-1093.79468487 159.10763832 -1091.51117779 153.04491551 -1089.17651367 146.98852539 C-1086.38543262 139.74269119 -1083.75279472 132.45997702 -1081.23901367 125.11352539 C-1077.7498226 114.9330817 -1073.96923421 104.87697273 -1070.12744141 94.82495117 C-1066.29677971 84.79502527 -1062.60523447 74.72035021 -1058.96020508 64.62182617 C-1057.48538486 60.55081517 -1055.9881717 56.48812526 -1054.48901367 52.42602539 C-1054.20380859 51.65307129 -1053.91860352 50.88011719 -1053.62475586 50.08374023 C-1053.05343375 48.53584079 -1052.48198235 46.98798906 -1051.91040039 45.44018555 C-1050.74785749 42.2909434 -1049.58733929 39.14095784 -1048.42749023 35.99072266 C-1047.84840841 34.41922887 -1047.26834706 32.84809564 -1046.68725586 31.27734375 C-1045.14428543 27.10288683 -1043.62202809 22.92214807 -1042.12573242 18.73071289 C-1041.80991211 17.85350586 -1041.4940918 16.97629883 -1041.16870117 16.07250977 C-1040.55997109 14.38059822 -1039.95688183 12.68664399 -1039.36010742 10.99047852 C-1037.27643807 5.22598759 -1037.27643807 5.22598759 -1035.05151367 4.11352539 C-1032.122176 4.02011457 -1029.21676658 3.98778791 -1026.28735352 4 C-1025.3799794 3.99985397 -1024.47260529 3.99970795 -1023.53773499 3.9995575 C-1020.52928299 4.00025588 -1017.5208924 4.00804485 -1014.51245117 4.01586914 C-1012.43022699 4.01773358 -1010.34800237 4.01915736 -1008.26577759 4.02015686 C-1002.77814529 4.02397998 -997.29053935 4.03380853 -991.80291748 4.04486084 C-986.206099 4.05507937 -980.60927628 4.05965543 -975.01245117 4.06469727 C-964.02546041 4.07543096 -953.03848923 4.09250494 -942.05151367 4.11352539 C-939.91252076 9.42265038 -937.783192 14.72952226 -935.81713867 20.10571289 C-935.41640137 21.19964355 -935.01566406 22.29357422 -934.6027832 23.4206543 C-934.17336426 24.59805176 -933.74394531 25.77544922 -933.30151367 26.98852539 C-932.83007622 28.27810523 -932.35855637 29.56765495 -931.88696289 30.85717773 C-930.2723088 35.27492683 -928.66172568 39.69415564 -927.05151367 44.11352539 C-926.74886597 44.94392334 -926.44621826 45.77432129 -926.13439941 46.62988281 C-918.71641801 66.98415837 -911.31894168 87.34567493 -903.97750854 107.72769165 C-900.44603457 117.52906805 -896.88375326 127.31886603 -893.30151367 137.10180664 C-892.88464798 138.24064301 -892.46778229 139.37947937 -892.0382843 140.55282593 C-889.97784351 146.18079314 -887.91523642 151.80795145 -885.84912109 157.43383789 C-881.72781193 168.67318383 -877.67852529 179.93220351 -873.77983093 191.25093079 C-871.60433686 197.56373831 -869.3497837 203.8444198 -867.05151367 210.11352539 C-863.86196643 218.82928606 -860.77546027 227.5767814 -857.75268555 236.35180664 C-857.44266602 237.2502832 -857.13264648 238.14875977 -856.81323242 239.07446289 C-856.54470459 239.85611816 -856.27617676 240.63777344 -855.99951172 241.44311523 C-855.18689836 243.73216106 -854.34683449 246.00685039 -853.49226379 248.28042603 C-853.2223805 248.99882975 -852.9524972 249.71723347 -852.67443562 250.457407 C-852.46887137 251.00392607 -852.26330713 251.55044514 -852.05151367 252.11352539 C-852.04516576 250.86255113 -852.04516576 250.86255113 -852.03868961 249.58630466 C-851.93552956 229.32377256 -851.8269141 209.06127616 -851.71217442 188.79880619 C-851.65682044 179.00016046 -851.60333493 169.20151108 -851.55419922 159.40283203 C-851.51138395 150.86551597 -851.46511278 142.32822695 -851.41463512 133.79095262 C-851.3880127 129.26764199 -851.36315918 124.74433679 -851.34243965 120.22099495 C-851.32290636 115.96851977 -851.29877272 111.71609618 -851.2710228 107.46366692 C-851.26163477 105.89830331 -851.25396584 104.33292836 -851.24809456 102.76754761 C-851.23986298 100.6396167 -851.22559499 98.51181201 -851.20973206 96.38392639 C-851.20005323 94.59334352 -851.20005323 94.59334352 -851.19017887 92.76658726 C-851.05151367 90.11352539 -851.05151367 90.11352539 -850.05151367 89.11352539 C-847.40951306 89.01309268 -844.79362777 88.97735689 -842.15112305 88.98413086 C-840.9097332 88.98150238 -840.9097332 88.98150238 -839.64326477 88.9788208 C-836.89391005 88.97440146 -834.1446191 88.97734056 -831.39526367 88.98071289 C-829.49336739 88.98003987 -827.59147118 88.97906987 -825.6895752 88.97781372 C-821.69807112 88.97633664 -817.70658938 88.97849164 -813.71508789 88.9831543 C-808.58660861 88.98885159 -803.45818165 88.98557264 -798.32970428 88.97958183 C-794.40077314 88.9759765 -790.47185449 88.97711468 -786.54292297 88.97970963 C-784.65139256 88.98037897 -782.75986102 88.9795502 -780.86833191 88.97723007 C-778.22949191 88.97470401 -775.59073786 88.97854348 -772.9519043 88.98413086 C-771.76743462 88.98109451 -771.76743462 88.98109451 -770.55903625 88.97799683 C-765.16577619 88.99926288 -765.16577619 88.99926288 -764.05151367 90.11352539 C-763.94961399 91.82817278 -763.91797916 93.54702749 -763.91348267 95.26469421 C-763.90802933 96.38174744 -763.90257599 97.49880066 -763.8969574 98.64970398 C-763.89591507 99.88646378 -763.89487274 101.12322357 -763.89379883 102.39746094 C-763.88599879 104.38463887 -763.87819473 106.3718168 -763.87024093 108.35899413 C-763.86251043 110.50359187 -763.85713668 112.64818529 -763.85228348 114.79279137 C-763.84160469 119.27041421 -763.82135447 123.74796141 -763.79916382 128.22554016 C-763.73725401 140.96168502 -763.68340846 153.69782787 -763.65014648 166.43408203 C-763.6317117 173.46196272 -763.6026553 180.48971888 -763.56214178 187.51750785 C-763.54119799 191.23251002 -763.52563285 194.94735599 -763.5233345 198.66242027 C-763.52075728 202.82427261 -763.4951441 206.98569606 -763.46801758 211.14746094 C-763.47102371 212.35790573 -763.47402985 213.56835052 -763.47712708 214.81547546 C-763.36640982 226.33047171 -762.55843142 239.47338969 -754.05151367 248.11352539 C-746.38969403 253.39855705 -738.13770762 253.85760817 -729.05151367 253.11352539 C-721.56566121 251.28132374 -714.22995118 247.35144207 -709.55151367 241.11352539 C-704.28656479 232.33861059 -702.58327094 222.88395081 -702.79370117 212.78540039 C-702.80068024 211.79369339 -702.8076593 210.80198639 -702.81484985 209.78022766 C-702.83101002 207.61450649 -702.85374107 205.44882648 -702.88232422 203.28323364 C-702.96013002 197.26204223 -702.98454971 191.240591 -703.01245117 185.21899414 C-703.01948059 183.90382309 -703.02651001 182.58865204 -703.03375244 181.23362732 C-703.11343231 163.44824828 -702.83497153 145.66486366 -702.5888443 127.88160706 C-702.55141117 125.16859651 -702.51469466 122.45557717 -702.47821045 119.74255371 C-702.34079755 109.53280694 -702.19894226 99.32313258 -702.05151367 89.11352539 C-690.0717782 88.98211675 -678.09203277 88.8516585 -666.11227417 88.72237396 C-660.54807026 88.66229653 -654.98387013 88.60190629 -649.41967773 88.54077148 C-644.03801263 88.48165414 -638.6563388 88.42339726 -633.2746582 88.3657074 C-631.23363927 88.34368281 -629.19262352 88.32136148 -627.15161133 88.29872131 C-615.4509536 88.1691476 -603.75296187 88.08046749 -592.05151367 88.11352539 C-592.08180664 86.83525879 -592.11209961 85.55699219 -592.14331055 84.23999023 C-592.25771973 79.38295195 -592.36869358 74.52583965 -592.47875977 69.66870117 C-592.52636175 67.58795121 -592.57482963 65.50722082 -592.62426758 63.42651367 C-592.89113427 52.16909628 -593.10413775 40.91335156 -593.14526367 29.65258789 C-593.15499207 28.2326503 -593.15499207 28.2326503 -593.16491699 26.7840271 C-593.16552124 25.92032501 -593.16612549 25.05662292 -593.16674805 24.16674805 C-593.16880249 23.40544586 -593.17085693 22.64414368 -593.17297363 21.85977173 C-593.05151367 20.11352539 -593.05151367 20.11352539 -592.05151367 19.11352539 C-589.52299792 18.98317585 -587.02031438 18.91687813 -584.48999023 18.89233398 C-583.69808289 18.88082809 -582.90617554 18.8693222 -582.090271 18.85746765 C-579.45760037 18.82062006 -576.82490552 18.79106539 -574.19213867 18.76196289 C-572.36708222 18.73885537 -570.54202933 18.71546512 -568.71697998 18.69180298 C-564.88353549 18.64326322 -561.05006942 18.59835094 -557.21655273 18.5559082 C-552.30585371 18.50122539 -547.39532516 18.43736863 -542.48477554 18.37073326 C-538.71185503 18.32059902 -534.93888704 18.27549722 -531.16588593 18.23189163 C-529.35579226 18.21034079 -527.54571685 18.18719576 -525.73566437 18.16242599 C-523.20067598 18.12846646 -520.66570202 18.10131695 -518.13061523 18.07592773 C-517.3834021 18.06455276 -516.63618896 18.0531778 -515.86633301 18.04145813 C-512.12529514 18.01136187 -508.68743554 18.20657495 -505.05151367 19.11352539 C-504.00343307 26.80549413 -503.92223691 34.3614597 -503.95385742 42.11743164 C-503.95527237 43.43645981 -503.95668732 44.75548798 -503.95814514 46.11448669 C-503.96193124 49.59142005 -503.97172732 53.06831046 -503.98284912 56.54522705 C-503.99314808 60.10509653 -503.99771591 63.66497327 -504.00268555 67.22485352 C-504.01282081 74.18778185 -504.03240224 81.15059284 -504.05151367 88.11352539 C-488.87151367 88.11352539 -473.69151367 88.11352539 -458.05151367 88.11352539 C-457.72151367 95.04352539 -457.39151367 101.97352539 -457.05151367 109.11352539 C-456.73223107 114.11561956 -456.4124088 119.1147439 -456.05151367 124.11352539 C-454.90263084 122.99163981 -453.7575023 121.86590855 -452.61401367 120.73852539 C-451.65688477 119.79879883 -451.65688477 119.79879883 -450.68041992 118.84008789 C-448.97269191 117.19629478 -448.97269191 117.19629478 -448.05151367 115.11352539 C-447.39151367 115.11352539 -446.73151367 115.11352539 -446.05151367 115.11352539 C-446.05151367 114.45352539 -446.05151367 113.79352539 -446.05151367 113.11352539 C-445.39151367 113.11352539 -444.73151367 113.11352539 -444.05151367 113.11352539 C-444.05151367 112.45352539 -444.05151367 111.79352539 -444.05151367 111.11352539 C-431.91774677 100.78127847 -418.00225 92.86052515 -402.92651367 87.73852539 C-402.25966553 87.51189209 -401.59281738 87.28525879 -400.90576172 87.05175781 C-387.09482442 82.67733467 -373.8535323 81.5723245 -359.48901367 81.67602539 C-358.60955078 81.67873444 -357.73008789 81.68144348 -356.82397461 81.68423462 C-343.22392976 81.74772992 -330.24070751 82.55449016 -317.05151367 86.11352539 C-315.97305176 86.38640381 -315.97305176 86.38640381 -314.87280273 86.66479492 C-300.5752247 90.33934472 -285.70941609 96.97491544 -274.05151367 106.11352539 C-274.05151367 106.77352539 -274.05151367 107.43352539 -274.05151367 108.11352539 C-273.49334961 108.34555664 -272.93518555 108.57758789 -272.36010742 108.81665039 C-256.91127898 117.49518007 -249.50608651 136.05627562 -242.05151367 151.11352539 C-241.3856873 152.44727854 -240.71955032 153.78087793 -240.05151367 155.11352539 C-239.55522461 154.08614258 -239.05893555 153.05875977 -238.54760742 152.00024414 C-231.89019785 138.35164572 -224.58392743 127.0457096 -214.05151367 116.11352539 C-213.40569336 115.39293945 -212.75987305 114.67235352 -212.09448242 113.92993164 C-194.23329864 94.5900442 -163.78840067 82.94289717 -138.05151367 81.11352539 C-100.90538083 79.87293167 -65.84720868 84.80808764 -36.70385742 109.62915039 C-26.22347287 119.44582871 -17.6319986 131.37207062 -13.05151367 145.11352539 C-11.73312865 142.47675534 -11.93160742 140.52536511 -11.93798828 137.5715332 C-11.93805878 136.39369263 -11.93812927 135.21585205 -11.9382019 134.00231934 C-11.94595139 132.05416321 -11.94595139 132.05416321 -11.95385742 130.06665039 C-11.9557758 128.69030816 -11.95723998 127.31396524 -11.95828247 125.93762207 C-11.96144793 122.97032384 -11.96772316 120.00305393 -11.97634888 117.0357666 C-11.98984039 112.3471701 -11.99575882 107.65858311 -12.00048828 102.9699707 C-12.01160153 93.01780966 -12.03113707 83.06567113 -12.05151367 73.11352539 C-12.0735092 62.37067831 -12.09409538 51.62784049 -12.10493183 40.88497543 C-12.10992595 36.2206906 -12.11980308 31.55644885 -12.13336182 26.8921814 C-12.14080212 23.99457371 -12.14413321 21.09697203 -12.14632797 18.19935608 C-12.14910385 16.20780692 -12.1569034 14.21626678 -12.16482544 12.22473145 C-12.16489594 11.04689087 -12.16496643 9.86905029 -12.16503906 8.65551758 C-12.16725967 7.62755066 -12.16948029 6.59958374 -12.17176819 5.54046631 C-12.05151367 3.11352539 -12.05151367 3.11352539 -11.05151367 1.11352539 C-7.32647866 -0.12815295 -3.87849268 -0.01798012 0 0 Z M-989.05151367 111.11352539 C-994.61944036 127.56457134 -999.94918618 144.06370307 -1005.00268555 160.68041992 C-1006.91371099 166.93573644 -1008.85930146 173.18033886 -1010.80151367 179.42602539 C-1013.56555 188.31757865 -1016.31785578 197.21258077 -1019.05151367 206.11352539 C-1015.96452024 207.1425232 -1013.9809456 207.20295403 -1010.75390625 207.13525391 C-1009.67301224 207.11515762 -1008.59211823 207.09506134 -1007.47846985 207.07435608 C-1006.31276962 207.04732101 -1005.1470694 207.02028595 -1003.94604492 206.99243164 C-1002.75170334 206.96882065 -1001.55736176 206.94520966 -1000.326828 206.92088318 C-996.50577019 206.84420628 -992.68491299 206.76019885 -988.86401367 206.67602539 C-986.27613292 206.62280877 -983.68824233 206.57006834 -981.1003418 206.51782227 C-974.75060784 206.38858561 -968.40102332 206.25332734 -962.05151367 206.11352539 C-962.6002731 201.90971718 -963.27700903 197.88311503 -964.43432617 193.80493164 C-964.71083008 192.82331055 -964.98733398 191.84168945 -965.2722168 190.83032227 C-965.57063477 189.7894043 -965.86905273 188.74848633 -966.17651367 187.67602539 C-966.64347656 186.02763672 -966.64347656 186.02763672 -967.11987305 184.34594727 C-969.50918727 175.93767648 -971.95718823 167.54662372 -974.41845703 159.15917969 C-977.1836346 149.71697765 -979.83228783 140.24338416 -982.47338867 130.76586914 C-984.30158365 124.20606882 -986.16681274 117.65730067 -988.05151367 111.11352539 C-988.38151367 111.11352539 -988.71151367 111.11352539 -989.05151367 111.11352539 Z M-387.92651367 151.98852539 C-394.0173368 159.56631003 -395.60207011 166.31575114 -398.05151367 176.11352539 C-370.99151367 176.11352539 -343.93151367 176.11352539 -316.05151367 176.11352539 C-317.30035236 163.62513854 -319.54613777 155.63132977 -329.05151367 147.11352539 C-329.71151367 147.11352539 -330.37151367 147.11352539 -331.05151367 147.11352539 C-331.05151367 146.45352539 -331.05151367 145.79352539 -331.05151367 145.11352539 C-332.79953513 144.29677743 -334.55001556 143.48529088 -336.30151367 142.67602539 C-337.76331055 141.99733398 -337.76331055 141.99733398 -339.25463867 141.30493164 C-355.10052145 134.55493967 -376.39086336 139.49566154 -387.92651367 151.98852539 Z M-504.05151367 143.11352539 C-504.14212752 154.65807784 -504.21540978 166.20239145 -504.25876236 177.74722004 C-504.27957655 183.10879616 -504.30778095 188.47011492 -504.35327148 193.83154297 C-504.39694989 199.01221917 -504.4206971 204.19264888 -504.43102264 209.3734951 C-504.43837468 211.3433234 -504.45273092 213.31313925 -504.4744339 215.28286171 C-504.86832668 232.24466738 -504.86832668 232.24466738 -497.61401367 247.17602539 C-490.53292035 252.53002278 -482.56826592 252.26500913 -474.05151367 252.11352539 C-474.30674805 251.27047852 -474.30674805 251.27047852 -474.56713867 250.41040039 C-476.41686703 243.99538501 -477.85679127 237.52902118 -479.17651367 230.98852539 C-479.34699219 230.15417969 -479.5174707 229.31983398 -479.69311523 228.46020508 C-485.5991432 198.64826669 -480.03083262 170.59549239 -468.05151367 143.11352539 C-479.93151367 143.11352539 -491.81151367 143.11352539 -504.05151367 143.11352539 Z M-151.30151367 158.73852539 C-163.35577194 176.16479006 -161.8142335 204.82815906 -158.67260742 224.84790039 C-156.34416173 237.09054566 -151.57915436 246.85852207 -141.05151367 254.11352539 C-131.76791476 258.70468703 -121.35410554 259.7828109 -111.42651367 256.67602539 C-101.61329539 252.61196529 -95.66564302 245.65044485 -91.20776367 236.20336914 C-89.86074446 232.60373333 -88.98367873 228.84218561 -88.05151367 225.11352539 C-62.64151367 224.78352539 -37.23151367 224.45352539 -11.05151367 224.11352539 C-11.05151367 207.94352539 -11.05151367 191.77352539 -11.05151367 175.11352539 C-14.59121464 173.93362507 -17.77878846 173.98133644 -21.46044922 174 C-22.21191223 173.99985397 -22.96337524 173.99970795 -23.73760986 173.9995575 C-26.22118009 174.0002541 -28.7046753 174.00803472 -31.18823242 174.01586914 C-32.91030333 174.01773422 -34.63237478 174.0191577 -36.35444641 174.02015686 C-40.88690658 174.02397499 -45.41933471 174.03379928 -49.95178223 174.04486084 C-54.57681851 174.05509008 -59.20185996 174.05965773 -63.8269043 174.06469727 C-72.90178817 174.07542216 -81.97664825 174.09249016 -91.05151367 174.11352539 C-91.17051025 173.36949463 -91.28950684 172.62546387 -91.41210938 171.85888672 C-91.57799561 170.87686279 -91.74388184 169.89483887 -91.91479492 168.88305664 C-92.15516479 167.426698 -92.15516479 167.426698 -92.40039062 165.94091797 C-93.85772401 159.61269227 -97.8090418 154.45467104 -102.84057617 150.43383789 C-119.14326974 140.69830711 -139.23330123 144.30458396 -151.30151367 158.73852539 Z M-372.67651367 222.61352539 C-373.67302822 222.63146212 -373.67302822 222.63146212 -374.68967438 222.6497612 C-382.4772348 222.79108627 -390.26450735 222.944417 -398.05151367 223.11352539 C-398.19699684 234.73420765 -393.82890487 245.72338058 -385.98901367 254.39477539 C-384.23381916 256.33473026 -384.23381916 256.33473026 -382.05151367 256.11352539 C-382.05151367 256.77352539 -382.05151367 257.43352539 -382.05151367 258.11352539 C-379.87007143 259.27232203 -377.6824835 260.41539917 -375.48901367 261.55102539 C-374.87993164 261.87651367 -374.27084961 262.20200195 -373.64331055 262.53735352 C-363.83488827 267.57130569 -351.20923871 267.37931125 -340.59448242 264.93774414 C-332.72751345 262.38792778 -323.88750059 258.35601611 -318.8679657 251.49601746 C-316.02932336 249.33554173 -312.97862163 249.67430646 -309.55078125 249.68115234 C-308.78956467 249.67096069 -308.02834808 249.66076904 -307.24406433 249.65026855 C-304.72798362 249.62007432 -302.2122832 249.61086303 -299.69604492 249.60180664 C-297.95154041 249.58496468 -296.20704807 249.56681509 -294.46257019 249.54740906 C-289.87097985 249.49985034 -285.27943884 249.47007907 -280.68768311 249.44396973 C-276.00222019 249.41419375 -271.31692739 249.36765329 -266.6315918 249.32250977 C-257.4383213 249.23640991 -248.24501585 249.16909442 -239.05151367 249.11352539 C-239.22166992 248.58887695 -239.39182617 248.06422852 -239.56713867 247.52368164 C-242.18283458 239.16180268 -244.10082939 230.64900685 -246.05151367 222.11352539 C-259.75983678 222.08277235 -273.46816073 222.0624947 -287.17651367 222.05102539 C-288.19239311 222.05016937 -289.20827255 222.04931335 -290.25493622 222.0484314 C-317.73286163 222.02798575 -345.20266126 222.11862153 -372.67651367 222.61352539 Z " fill="#010101" transform="translate(1208.051513671875,129.886474609375)"></path> <path d="M0 0 C1.20785156 0.25394531 2.41570312 0.50789062 3.66015625 0.76953125 C32.33016693 7.484753 54.74173619 24.11296369 70.1875 49 C85.37050467 75.22145941 89.32940462 107.18249794 89 137 C71.53145164 138.10413251 54.08513035 138.13387721 36.5910089 138.10139394 C32.58324215 138.09504803 28.57547425 138.09454787 24.56770325 138.09336853 C17.01416967 138.09028778 9.46065096 138.08211933 1.90712386 138.07201904 C-6.7074656 138.06075545 -15.32205585 138.0553219 -23.93665087 138.05032361 C-41.62444227 138.03993314 -59.31221993 138.0223983 -77 138 C-76.54240579 140.23272793 -76.07904721 142.46427495 -75.61328125 144.6953125 C-75.22716675 146.55953857 -75.22716675 146.55953857 -74.83325195 148.46142578 C-72.37724381 158.89136486 -66.96135218 167.50571803 -58.140625 173.68359375 C-46.66623825 180.73992283 -33.45575873 181.73461906 -20.4296875 178.67578125 C-11.94045646 176.31462857 -6.5338558 173.20225716 -0.2265625 166.92578125 C3.87131623 163.38147561 8.31471312 163.8599403 13.52246094 163.88647461 C14.27406998 163.88632858 15.02567902 163.88618256 15.80006409 163.8860321 C18.27819734 163.88672738 20.75625492 163.89450174 23.234375 163.90234375 C24.95501667 163.9042093 26.67565888 163.90563256 28.39630127 163.90663147 C32.92052685 163.91044587 37.44472023 163.92026698 41.96893311 163.93133545 C46.58735722 163.94157271 51.20578655 163.94613405 55.82421875 163.95117188 C64.88282663 163.9618902 73.94141064 163.97895371 83 164 C84 166 84 166 83.25 168.3984375 C78.92946254 178.68671734 73.78489109 189.8053778 66 198 C65.34 198 64.68 198 64 198 C63.690625 198.804375 63.690625 198.804375 63.375 199.625 C61.46749574 202.91978009 58.95180616 205.59363628 56 208 C55.34 208 54.68 208 54 208 C54 208.66 54 209.32 54 210 C24.2168492 234.49987884 -14.63371629 240.43953134 -52.07470703 237.78173828 C-63.72248459 236.6014025 -74.94980621 233.81349587 -86 230 C-86.64275879 229.77973145 -87.28551758 229.55946289 -87.94775391 229.33251953 C-109.61777144 221.72619423 -127.09613564 208.18614617 -141 190 C-141.48597656 189.41347656 -141.97195313 188.82695312 -142.47265625 188.22265625 C-153.22826847 174.63115913 -159.14297259 153.93030187 -161 137 C-161.10957031 136.05382812 -161.21914062 135.10765625 -161.33203125 134.1328125 C-163.425489 113.08658395 -161.11987075 92.8962396 -154 73 C-170.18362318 74.35308621 -183.05550889 76.45514806 -194.6875 88.6875 C-206.60098949 103.06491573 -208.10654982 123.60775623 -208.18945312 141.50439453 C-208.19774643 142.48950516 -208.20603973 143.47461578 -208.21458435 144.48957825 C-208.23184077 146.60545467 -208.24704527 148.72134867 -208.26036072 150.83725357 C-208.28156273 154.18214905 -208.30856221 157.52695465 -208.33703613 160.87179565 C-208.40650277 169.16539968 -208.46647957 177.45906655 -208.52606201 185.75274658 C-208.57690142 192.78956125 -208.63164076 199.82632311 -208.69187927 206.86306381 C-208.71850795 210.16529545 -208.73927622 213.46753202 -208.7598877 216.76980591 C-208.77647759 218.77639001 -208.79334825 220.78297181 -208.81054688 222.78955078 C-208.81473129 223.7130986 -208.81891571 224.63664642 -208.82322693 225.58818054 C-208.88613548 231.88613548 -208.88613548 231.88613548 -210 233 C-238.71 233 -267.42 233 -297 233 C-297 157.1 -297 81.2 -297 3 C-281.24599223 1.87471373 -281.24599223 1.87471373 -275.00073242 1.87060547 C-274.3175444 1.86885315 -273.63435638 1.86710083 -272.9304657 1.86529541 C-270.73877192 1.86099834 -268.54716289 1.86376629 -266.35546875 1.8671875 C-264.80845627 1.86651197 -263.26144389 1.86553988 -261.71443176 1.86428833 C-258.50679492 1.8628288 -255.29918626 1.86491286 -252.09155273 1.86962891 C-247.97346663 1.87538832 -243.85544483 1.87199754 -239.73736095 1.86605644 C-236.55906176 1.86245665 -233.38077805 1.86358563 -230.20247841 1.86618423 C-228.68216252 1.8668519 -227.16184524 1.86603067 -225.64153099 1.86370468 C-223.5333616 1.86118103 -221.42529997 1.8650117 -219.31713867 1.87060547 C-218.11804367 1.87140106 -216.91894867 1.87219666 -215.68351746 1.87301636 C-213 2 -213 2 -212 3 C-211.84028023 5.37338639 -211.7407567 7.72118272 -211.68359375 10.09765625 C-211.66281265 10.80651474 -211.64203156 11.51537323 -211.62062073 12.24571228 C-211.55505402 14.51787305 -211.4962077 16.79015264 -211.4375 19.0625 C-211.39432151 20.59962183 -211.35070745 22.1367315 -211.30664062 23.67382812 C-211.19936551 27.4490959 -211.09811863 31.2244836 -211 35 C-210.46528076 34.19393311 -209.93056152 33.38786621 -209.37963867 32.55737305 C-208.6704126 31.49043213 -207.96118652 30.42349121 -207.23046875 29.32421875 C-206.53074951 28.27065186 -205.83103027 27.21708496 -205.11010742 26.1315918 C-195.0508754 11.20277436 -182.19165811 1.65724328 -164.4387207 -2.60522461 C-159.08347712 -3.47212108 -153.66086297 -3.32686004 -148.25 -3.3125 C-147.05117187 -3.32861328 -145.85234375 -3.34472656 -144.6171875 -3.36132812 C-143.42867187 -3.36197266 -142.24015625 -3.36261719 -141.015625 -3.36328125 C-139.95633789 -3.36626221 -138.89705078 -3.36924316 -137.80566406 -3.37231445 C-132.44412047 -2.84778571 -127.22629372 -1.30657343 -122 0 C-121.67 8.25 -121.34 16.5 -121 25 C-118.36 22.69 -115.72 20.38 -113 18 C-107.9498515 14.10204202 -102.83294172 11.20104522 -97.0625 8.5 C-95.82113281 7.91690063 -95.82113281 7.91690063 -94.5546875 7.32202148 C-65.28906669 -6.09792389 -31.15764779 -7.16528633 0 0 Z M-63.9375 63.5 C-64.618125 64.325 -65.29875 65.15 -66 66 C-66.825 66.86625 -67.65 67.7325 -68.5 68.625 C-73.96853081 75.33952517 -75.94010142 82.52081133 -77 91 C-50.27 91 -23.54 91 4 91 C4 81.31021822 2.40816927 73.9240122 -3.6875 66.25 C-5.70116241 63.76754835 -5.70116241 63.76754835 -8 64 C-8 63.34 -8 62.68 -8 62 C-24.65578937 49.67529722 -47.9070558 49.85706877 -63.9375 63.5 Z " fill="#010101" transform="translate(1736,213)"></path> <path d="M0 0 C11.71726788 -0.02312215 23.43453037 -0.04091443 35.15181637 -0.05181217 C40.59202312 -0.05704128 46.03221431 -0.06413943 51.47241211 -0.07543945 C56.71785702 -0.08626735 61.96328692 -0.09227662 67.20874214 -0.09487724 C69.21470946 -0.09673167 71.22067592 -0.10035262 73.22663689 -0.10573006 C76.02602824 -0.11293919 78.82535679 -0.113991 81.62475586 -0.11352539 C82.46272705 -0.11712067 83.30069824 -0.12071594 84.1640625 -0.12442017 C89.88594784 -0.11405216 89.88594784 -0.11405216 91 1 C91.1003999 3.5704643 91.13617264 6.11408169 91.12939453 8.68505859 C91.13202301 9.89236885 91.13202301 9.89236885 91.13470459 11.12406921 C91.13912479 13.79888024 91.13618398 16.47362574 91.1328125 19.1484375 C91.13348562 21.00070203 91.13445572 22.85296648 91.13571167 24.70523071 C91.13718898 28.59418577 91.13503352 32.48311791 91.13037109 36.37207031 C91.12468172 41.36134866 91.12794758 46.35057312 91.13394356 51.33984947 C91.13755505 55.16763719 91.13640773 58.99541212 91.13381577 62.82320023 C91.13314772 64.66283805 91.13397068 66.50247702 91.13629532 68.34211349 C91.13883058 70.91349111 91.13496849 73.48478126 91.12939453 76.05615234 C91.13141876 76.81990677 91.13344299 77.58366119 91.13552856 78.37055969 C91.12286736 81.51833831 91.00317127 83.99048618 90 87 C80.40462301 88.14735559 70.83358078 88.16366035 61.1875 88.16796875 C59.4840492 88.17118787 57.78059868 88.17455242 56.07714844 88.17805481 C52.53042966 88.18400451 48.98373513 88.1858986 45.43701172 88.18530273 C40.88965116 88.18520038 36.34244419 88.19894567 31.79512024 88.21607494 C28.28818034 88.22717045 24.78127817 88.22922284 21.27432251 88.22869301 C19.59656232 88.22987323 17.91880116 88.2342974 16.24105835 88.24202538 C13.90538492 88.25179235 11.5700536 88.24896239 9.234375 88.24291992 C8.54243546 88.24853943 7.85049591 88.25415894 7.1375885 88.25994873 C3.52073942 88.23609961 2.10350206 88.06900138 -1 86 C-1.29171758 83.32382669 -1.38873389 80.87919758 -1.35644531 78.20141602 C-1.35848969 77.39639648 -1.36053406 76.59137695 -1.36264038 75.76196289 C-1.36565626 73.092382 -1.3471458 70.42341406 -1.328125 67.75390625 C-1.32506835 65.90307264 -1.32319152 64.05223674 -1.32244873 62.20140076 C-1.31784041 58.31834133 -1.3033956 54.43548868 -1.28125 50.55249023 C-1.25298695 45.57107607 -1.24204098 40.58982508 -1.2375679 35.60833836 C-1.23341325 31.78482932 -1.22359506 27.9613534 -1.21169281 24.13786125 C-1.20598857 22.30101728 -1.20123037 20.46417013 -1.19742584 18.62732124 C-1.19056104 16.0608167 -1.17692692 13.4944417 -1.16113281 10.92797852 C-1.16001495 10.16579514 -1.15889709 9.40361176 -1.15774536 8.61833191 C-1.13212069 5.4787898 -1.00040069 3.00120208 0 0 Z " fill="#000000" transform="translate(1823,357)"></path> <path d="M0 0 C0.78964645 0.00202423 1.57929291 0.00404846 2.39286804 0.00613403 C3.63425789 0.00350555 3.63425789 0.00350555 4.90072632 0.00082397 C7.65008104 -0.00359537 10.39937199 -0.00065627 13.14872742 0.00271606 C15.0506237 0.00204305 16.9525199 0.00107304 18.85441589 -0.00018311 C22.84591997 -0.00166019 26.83740171 0.00049482 30.8289032 0.00515747 C35.95738248 0.01085476 41.08580944 0.00757582 46.2142868 0.00158501 C50.14321795 -0.00202032 54.0721366 -0.00088215 58.00106812 0.0017128 C59.89259853 0.00238215 61.78413007 0.00155338 63.67565918 -0.00076675 C66.31449918 -0.00329282 68.95325323 0.00054665 71.59208679 0.00613403 C72.77655647 0.00309769 72.77655647 0.00309769 73.98495483 0 C79.3782149 0.02126605 79.3782149 0.02126605 80.49247742 1.13552856 C80.60115904 2.97011031 80.63936158 4.80888906 80.6506958 6.64665222 C80.66048462 7.84283676 80.67027344 9.0390213 80.68035889 10.27145386 C80.68626383 11.60903891 80.69207423 12.94662438 80.69779968 14.28421021 C80.70737295 15.68335768 80.7173827 17.08250222 80.72779846 18.48164368 C80.75491342 22.29136166 80.77588716 26.10109211 80.79580045 29.91085362 C80.8176195 33.88806656 80.84502808 37.86524076 80.87185669 41.84242249 C80.92183894 49.37888587 80.96675717 56.91537069 81.00987905 64.4518761 C81.05920425 73.02975435 81.11413982 81.60759375 81.16955864 90.18543446 C81.28346358 107.83542979 81.39028399 125.48546174 81.49247742 143.13552856 C81.16247742 143.13552856 80.83247742 143.13552856 80.49247742 143.13552856 C79.65748296 139.4901107 79.35841121 136.10785616 79.33425903 132.37117004 C79.32447021 131.21997177 79.3146814 130.0687735 79.30459595 128.88269043 C79.29884048 127.62896637 79.29308502 126.37524231 79.28715515 125.08352661 C79.27756947 123.74290164 79.26755899 122.40227965 79.25715637 121.06166077 C79.23017594 117.42986037 79.20912934 113.79804708 79.18915439 110.16620231 C79.16725239 106.36785275 79.13988436 102.56954266 79.11309814 98.77122498 C79.06322815 91.58197175 79.01826825 84.39269654 78.97507578 77.20340043 C78.91641123 67.48609591 78.85015501 57.76884333 78.7843256 48.0515852 C78.68083999 32.74626801 78.58749165 17.44090611 78.49247742 2.13552856 C50.77247742 2.13552856 23.05247742 2.13552856 -5.50752258 2.13552856 C-5.50752258 57.57552856 -5.50752258 113.01552856 -5.50752258 170.13552856 C-6.49752258 169.14552856 -7.48752258 168.15552856 -8.50752258 167.13552856 C-8.20449066 165.36205578 -8.20449066 165.36205578 -7.50752258 163.13552856 C-7.40823176 160.929039 -7.36560167 158.71979486 -7.35603333 156.51109314 C-7.35180091 155.84684552 -7.3475685 155.18259791 -7.34320784 154.49822158 C-7.33019964 152.27421287 -7.32416135 150.05023999 -7.31806946 147.82620239 C-7.31012589 146.23119387 -7.30173784 144.6361875 -7.29293823 143.04118347 C-7.27489076 139.60794006 -7.25987203 136.17470138 -7.24716187 132.7414341 C-7.22694569 127.3178107 -7.19929469 121.89424098 -7.17048645 116.47065735 C-7.10529216 103.98292124 -7.04980406 91.49514551 -6.99449921 79.00736237 C-6.94369643 67.55497699 -6.89086802 56.1026112 -6.8299737 44.65027446 C-6.80156115 39.25315177 -6.7779889 33.85603564 -6.75804901 28.4588753 C-6.74470327 25.11006388 -6.72728939 21.76128281 -6.70873833 18.41249657 C-6.70095466 16.85357807 -6.69489727 15.29464991 -6.69064522 13.73571777 C-6.68463736 11.616764 -6.67260882 9.49792964 -6.65901184 7.37901306 C-6.65385811 6.19048642 -6.64870438 5.00195978 -6.64339447 3.77741718 C-6.39919044 -0.97087824 -4.21443184 0.01661784 0 0 Z " fill="#282A2F" transform="translate(363.5075225830078,218.86447143554688)"></path> <path d="M0 0 C11.71726788 -0.02312215 23.43453037 -0.04091443 35.15181637 -0.05181217 C40.59202312 -0.05704128 46.03221431 -0.06413943 51.47241211 -0.07543945 C56.71785702 -0.08626735 61.96328692 -0.09227662 67.20874214 -0.09487724 C69.21470946 -0.09673167 71.22067592 -0.10035262 73.22663689 -0.10573006 C76.02602824 -0.11293919 78.82535679 -0.113991 81.62475586 -0.11352539 C82.46272705 -0.11712067 83.30069824 -0.12071594 84.1640625 -0.12442017 C89.88594784 -0.11405216 89.88594784 -0.11405216 91 1 C91.08865208 3.8843382 91.11521296 6.74462158 91.09765625 9.62890625 C91.0962413 10.49313705 91.09482635 11.35736786 91.09336853 12.24778748 C91.08775239 15.01939292 91.07519719 17.7909188 91.0625 20.5625 C91.05748708 22.4368478 91.05292381 24.31119685 91.04882812 26.18554688 C91.03777772 30.79039544 91.0205023 35.39518421 91 40 C90.67 40 90.34 40 90 40 C89.67 27.13 89.34 14.26 89 1 C59.96 1 30.92 1 1 1 C1 7.27 1 13.54 1 20 C0.93958869 25.28582924 0.87005317 30.57018805 0.78125 35.85546875 C0.75869755 37.26320691 0.73628037 38.67094725 0.71398926 40.07868958 C0.65613861 43.71001402 0.5965035 47.34130682 0.53643799 50.97259521 C0.47499204 54.70762354 0.41531476 58.44268013 0.35546875 62.17773438 C0.23866633 69.45185096 0.11997026 76.7259349 0 84 C0.99 84 1.98 84 3 84 C3 84.66 3 85.32 3 86 C30.39 86 57.78 86 86 86 C86 85.34 86 84.68 86 84 C86.99 84 87.98 84 89 84 C88.99476318 83.15928955 88.98952637 82.3185791 88.98413086 81.45239258 C88.96686384 78.26717391 88.95444226 75.08197946 88.94506836 71.89672852 C88.94010727 70.53050948 88.93333628 69.16429556 88.92456055 67.7980957 C88.86837267 58.81133999 89.15299477 49.94846226 90 41 C90.33 41 90.66 41 91 41 C91.02469669 47.06892601 91.04285842 53.13782283 91.05493164 59.20678711 C91.05996414 61.27189646 91.06679069 63.33700224 91.07543945 65.40209961 C91.08755236 68.36833578 91.09323911 71.33452489 91.09765625 74.30078125 C91.10281754 75.2258699 91.10797882 76.15095856 91.11329651 77.1040802 C91.11337204 77.96474594 91.11344757 78.82541168 91.11352539 79.7121582 C91.115746 80.46938675 91.11796661 81.2266153 91.12025452 82.00679016 C91 84 91 84 90 87 C80.40462301 88.14735559 70.83358078 88.16366035 61.1875 88.16796875 C59.4840492 88.17118787 57.78059868 88.17455242 56.07714844 88.17805481 C52.53042966 88.18400451 48.98373513 88.1858986 45.43701172 88.18530273 C40.88965116 88.18520038 36.34244419 88.19894567 31.79512024 88.21607494 C28.28818034 88.22717045 24.78127817 88.22922284 21.27432251 88.22869301 C19.59656232 88.22987323 17.91880116 88.2342974 16.24105835 88.24202538 C13.90538492 88.25179235 11.5700536 88.24896239 9.234375 88.24291992 C8.54243546 88.24853943 7.85049591 88.25415894 7.1375885 88.25994873 C3.52073942 88.23609961 2.10350206 88.06900138 -1 86 C-1.29171758 83.32382669 -1.38873389 80.87919758 -1.35644531 78.20141602 C-1.35848969 77.39639648 -1.36053406 76.59137695 -1.36264038 75.76196289 C-1.36565626 73.092382 -1.3471458 70.42341406 -1.328125 67.75390625 C-1.32506835 65.90307264 -1.32319152 64.05223674 -1.32244873 62.20140076 C-1.31784041 58.31834133 -1.3033956 54.43548868 -1.28125 50.55249023 C-1.25298695 45.57107607 -1.24204098 40.58982508 -1.2375679 35.60833836 C-1.23341325 31.78482932 -1.22359506 27.9613534 -1.21169281 24.13786125 C-1.20598857 22.30101728 -1.20123037 20.46417013 -1.19742584 18.62732124 C-1.19056104 16.0608167 -1.17692692 13.4944417 -1.16113281 10.92797852 C-1.16001495 10.16579514 -1.15889709 9.40361176 -1.15774536 8.61833191 C-1.13212069 5.4787898 -1.00040069 3.00120208 0 0 Z " fill="#2E282F" transform="translate(1823,357)"></path> <path d="M0 0 C0 0.66 0 1.32 0 2 C-29.04 2 -58.08 2 -88 2 C-87.835 11.075 -87.67 20.15 -87.5 29.5 C-87.4066563 35.25909291 -87.31456151 41.01807209 -87.234375 46.77734375 C-87.22427147 47.50229475 -87.21416794 48.22724575 -87.20375824 48.97416496 C-86.98873754 64.61040377 -86.82377909 80.24661526 -86.76782227 95.88427734 C-86.75755874 98.65015605 -86.74023002 101.41584491 -86.71655273 104.18164062 C-86.68383674 108.07032319 -86.67664568 111.95883432 -86.671875 115.84765625 C-86.65956848 116.97547012 -86.64726196 118.103284 -86.63458252 119.26527405 C-86.65711704 127.4785326 -88.02575579 135.03793458 -90 143 C-91.0005274 139.88724809 -90.87808315 138.11261909 -90 135 C-89.9211785 133.58539773 -89.89217901 132.16749249 -89.90234375 130.75073242 C-89.90560669 129.9019754 -89.90886963 129.05321838 -89.91223145 128.17874146 C-89.92057007 127.24706146 -89.92890869 126.31538147 -89.9375 125.35546875 C-89.94614334 123.26896233 -89.95459633 121.18245511 -89.96289062 119.09594727 C-89.96909424 117.97455353 -89.97529785 116.85315979 -89.98168945 115.69778442 C-90.11843869 89.48181671 -89.85344039 63.27573683 -89.5 37.0625 C-89.48797546 36.16464657 -89.47595093 35.26679314 -89.46356201 34.34173203 C-89.31466957 23.22773996 -89.16048574 12.11383077 -89 1 C-79.4630196 0.86848898 -69.92602559 0.73802524 -60.38901329 0.60884857 C-55.95920494 0.54881598 -51.52940184 0.48844102 -47.09960938 0.42724609 C-42.81372801 0.36805244 -38.52783465 0.30980711 -34.24193192 0.25218201 C-32.61792172 0.23018726 -30.99391589 0.20786759 -29.36991501 0.18519592 C-19.57898443 0.04876267 -9.79210852 -0.03089264 0 0 Z " fill="#2C2B32" transform="translate(595,218)"></path> <path d="M0 0 C0.33 0 0.66 0 1 0 C0.67 43.89 0.34 87.78 0 133 C-28.71 133 -57.42 133 -87 133 C-88.03885412 129.88343765 -88.11486925 127.7572576 -88.09765625 124.49047852 C-88.09435303 123.36243301 -88.0910498 122.23438751 -88.08764648 121.07215881 C-88.07934814 119.85338547 -88.0710498 118.63461212 -88.0625 117.37890625 C-88.05682007 115.50174171 -88.05682007 115.50174171 -88.05102539 113.58665466 C-88.03670687 108.89867347 -88.01347194 104.21076731 -87.98962402 99.52282715 C-87.9667489 94.93319536 -87.95137683 90.3435759 -87.9375 85.75390625 C-87.92920166 84.53715714 -87.92090332 83.32040802 -87.91235352 82.06678772 C-87.90905029 80.93559006 -87.90574707 79.8043924 -87.90234375 78.63891602 C-87.89710693 77.6442482 -87.89187012 76.64958038 -87.88647461 75.62477112 C-87.98905335 73.2530927 -88.32089595 71.26539359 -89 69 C-88.01 69 -87.02 69 -86 69 C-86 89.79 -86 110.58 -86 132 C-57.95 132 -29.9 132 -1 132 C-1.01160156 122.89019531 -1.02320313 113.78039062 -1.03515625 104.39453125 C-1.04026468 98.62955701 -1.04511992 92.86458441 -1.04882812 87.09960938 C-1.05476355 77.94555095 -1.06174416 68.79150172 -1.07543945 59.63745117 C-1.08540855 52.9708433 -1.09185874 46.30424289 -1.09408849 39.63762778 C-1.09539181 36.10791996 -1.09845376 32.57823347 -1.10573006 29.04853249 C-1.11378809 25.10762762 -1.1139897 21.16674361 -1.11352539 17.22583008 C-1.11712067 16.05626266 -1.12071594 14.88669525 -1.12442017 13.6816864 C-1.1230455 12.60621552 -1.12167084 11.53074463 -1.12025452 10.42268372 C-1.12117631 9.49075101 -1.1220981 8.5588183 -1.12304783 7.59864521 C-0.99875997 4.97381191 -0.58312041 2.55880584 0 0 Z " fill="#25252A" transform="translate(1284,313)"></path> <path d="M0 0 C0.33 0 0.66 0 1 0 C1.02469669 6.06892601 1.04285842 12.13782283 1.05493164 18.20678711 C1.05996414 20.27189646 1.06679069 22.33700224 1.07543945 24.40209961 C1.08755236 27.36833578 1.09323911 30.33452489 1.09765625 33.30078125 C1.10281754 34.2258699 1.10797882 35.15095856 1.11329651 36.1040802 C1.11337204 36.96474594 1.11344757 37.82541168 1.11352539 38.7121582 C1.115746 39.46938675 1.11796661 40.2266153 1.12025452 41.00679016 C1 43 1 43 0 46 C-9.49070168 47.14053952 -18.94080623 47.12938175 -28.48046875 47.09765625 C-30.14626523 47.09578722 -31.81206227 47.09436561 -33.4778595 47.09336853 C-37.82607588 47.08958147 -42.17425795 47.07978451 -46.52246094 47.06866455 C-50.97395361 47.05836772 -55.42545193 47.05385332 -59.87695312 47.04882812 C-68.58465102 47.03815817 -77.29232122 47.02112851 -86 47 C-86 46.34 -86 45.68 -86 45 C-58.94 45 -31.88 45 -4 45 C-4 44.34 -4 43.68 -4 43 C-3.01 43 -2.02 43 -1 43 C-1.00523682 42.15928955 -1.01047363 41.3185791 -1.01586914 40.45239258 C-1.03313616 37.26717391 -1.04555774 34.08197946 -1.05493164 30.89672852 C-1.05989273 29.53050948 -1.06666372 28.16429556 -1.07543945 26.7980957 C-1.13162733 17.81133999 -0.84700523 8.94846226 0 0 Z " fill="#2A282F" transform="translate(1913,398)"></path> <path d="M0 0 C9.37035938 -0.02312504 18.74070901 -0.04091591 28.11109066 -0.05181217 C32.46168459 -0.05704065 36.81225907 -0.06413765 41.1628418 -0.07543945 C45.35790258 -0.08626959 49.55294459 -0.0922771 53.74801826 -0.09487724 C55.35206968 -0.09673126 56.95612003 -0.10035144 58.5601635 -0.10573006 C60.79916515 -0.11294219 63.0380883 -0.11399087 65.27709961 -0.11352539 C66.55395126 -0.115746 67.83080292 -0.11796661 69.14634705 -0.12025452 C72 0 72 0 73 1 C73.16010481 3.73701178 73.25946828 6.4516759 73.31640625 9.19140625 C73.33718735 10.01124496 73.35796844 10.83108368 73.37937927 11.67576599 C73.44496494 14.30458901 73.50380126 16.93351504 73.5625 19.5625 C73.60567667 21.34050561 73.64929067 23.11850065 73.69335938 24.89648438 C73.80065543 29.26421634 73.90189704 33.63205227 74 38 C73.01 38 72.02 38 71 38 C71 26.12 71 14.24 71 2 C47.57 2 24.14 2 0 2 C0 1.34 0 0.68 0 0 Z " fill="#343238" transform="translate(1451,215)"></path> <path d="M0 0 C26.4 0 52.8 0 80 0 C80.495 0.99 80.495 0.99 81 2 C80.109375 4.64453125 80.109375 4.64453125 78.75 7.8125 C78.09257813 9.36904297 78.09257813 9.36904297 77.421875 10.95703125 C76.10727357 13.77042278 74.65100281 16.37296317 73 19 C72.505 18.01 72.505 18.01 72 17 C75.465 9.575 75.465 9.575 79 2 C52.6 2 26.2 2 -1 2 C-0.67 1.34 -0.34 0.68 0 0 Z " fill="#33323B" transform="translate(1739,377)"></path> <path d="M0 0 C0.99 0 1.98 0 3 0 C2.67 12.54 2.34 25.08 2 38 C-1.92013658 38.98003414 -5.61613128 39.33981047 -9.625 39.5625 C-10.35904053 39.6049585 -11.09308105 39.64741699 -11.84936523 39.69116211 C-20.23149191 40.13130125 -28.60940325 40.08832207 -37 40 C-37 39.67 -37 39.34 -37 39 C-33.08401182 38.65837319 -29.16712818 38.32827575 -25.25 38 C-24.15816406 37.90460938 -23.06632813 37.80921875 -21.94140625 37.7109375 C-20.30751953 37.57558594 -20.30751953 37.57558594 -18.640625 37.4375 C-17.65610352 37.35371094 -16.67158203 37.26992188 -15.65722656 37.18359375 C-10.44435651 36.92190628 -5.21943431 37 0 37 C0 24.79 0 12.58 0 0 Z " fill="#27292E" transform="translate(749,409)"></path> <path d="M0 0 C0.33 0 0.66 0 1 0 C1 23.1 1 46.2 1 70 C1.99 70 2.98 70 4 70 C4.33 70.99 4.66 71.98 5 73 C4.01 73.495 4.01 73.495 3 74 C2.01 73.34 1.02 72.68 0 72 C-0.36076355 69.02609253 -0.36076355 69.02609253 -0.34057617 65.16357422 C-0.34101425 64.46102509 -0.34145233 63.75847595 -0.34190369 63.03463745 C-0.33981021 60.70770674 -0.31645395 58.38149264 -0.29296875 56.0546875 C-0.28737476 54.44329217 -0.28310373 52.83189175 -0.28010559 51.2204895 C-0.26864126 46.9755855 -0.23916068 42.73098858 -0.20599365 38.48620605 C-0.17532682 34.15621088 -0.16160752 29.82616618 -0.14648438 25.49609375 C-0.11429227 16.99725479 -0.06307704 8.49866557 0 0 Z " fill="#453E46" transform="translate(1822,371)"></path> <path d="M0 0 C-1.30682801 2.88049117 -2.70501003 4.9608743 -4.93359375 7.19921875 C-5.50013672 7.76833984 -6.06667969 8.33746094 -6.65039062 8.92382812 C-7.24013672 9.50583984 -7.82988281 10.08785156 -8.4375 10.6875 C-9.02337891 11.28111328 -9.60925781 11.87472656 -10.21289062 12.48632812 C-11.06463867 13.33420898 -11.06463867 13.33420898 -11.93359375 14.19921875 C-12.44978271 14.71315186 -12.96597168 15.22708496 -13.49780273 15.7565918 C-15 17 -15 17 -18 18 C-16.64763423 15.06120516 -15.10057341 12.70767089 -13 10.25 C-12.484375 9.63640625 -11.96875 9.0228125 -11.4375 8.390625 C-10 7 -10 7 -8 7 C-8 6.34 -8 5.68 -8 5 C-7.34 5 -6.68 5 -6 5 C-6 4.34 -6 3.68 -6 3 C-2.53846154 0 -2.53846154 0 0 0 Z " fill="#1E1E22" transform="translate(770,238)"></path> <path d="M0 0 C0.66 0.33 1.32 0.66 2 1 C1.38125 1.2475 0.7625 1.495 0.125 1.75 C-2.1135554 2.80635775 -2.1135554 2.80635775 -2.91796875 4.84765625 C-4.12989561 7.25838441 -5.52587553 8.79231962 -7.4375 10.6875 C-8.03433594 11.28949219 -8.63117188 11.89148438 -9.24609375 12.51171875 C-11 14 -11 14 -14 15 C-10.94996117 8.13741263 -5.98232904 4.22538289 0 0 Z " fill="#252228" transform="translate(1549,220)"></path> <path d="M0 0 C0.33 0 0.66 0 1 0 C1 4.29 1 8.58 1 13 C1.99 13 2.98 13 4 13 C4.33 13.99 4.66 14.98 5 16 C4.34 16.33 3.68 16.66 3 17 C2.01 16.34 1.02 15.68 0 15 C-0.22137393 12.37302936 -0.28162025 9.99106036 -0.1875 7.375 C-0.17396484 6.66859375 -0.16042969 5.9621875 -0.14648438 5.234375 C-0.1111104 3.48925872 -0.05730221 1.74453392 0 0 Z " fill="#3B3239" transform="translate(1822,428)"></path> <path d="M0 0 C0.33 0 0.66 0 1 0 C1 5.94 1 11.88 1 18 C0.01 17.01 -0.98 16.02 -2 15 C-1.72265625 13.171875 -1.72265625 13.171875 -1 11 C-0.78351622 9.08639029 -0.59743032 7.16916379 -0.4375 5.25 C-0.35371094 4.26515625 -0.26992188 3.2803125 -0.18359375 2.265625 C-0.12300781 1.51796875 -0.06242187 0.7703125 0 0 Z " fill="#2C2E32" transform="translate(357,371)"></path> </svg>