<svg xmlns="http://www.w3.org/2000/svg" width="1000" height="1000" viewBox="0 0 1000 1000" version="1.1"><path d="M 487.694 202.008 C 431.463 207.329, 401.213 228.237, 356.043 293 C 342.041 313.075, 328.997 331.750, 327.056 334.500 C 323.966 338.876, 324.959 338.170, 335.013 328.842 C 433.479 237.483, 579.341 222.177, 692.500 291.329 C 704.957 298.941, 704.491 297.783, 689 282.618 C 631.640 226.467, 554.720 195.666, 487.694 202.008 M 237.015 463.024 C 195.458 522.429, 191.071 530.434, 184.173 559.451 C 162.286 651.525, 245.046 764.375, 366.921 808.642 C 377.738 812.571, 408.339 821.047, 411.455 820.976 C 412.030 820.964, 407.550 818.365, 401.500 815.202 C 263.811 743.215, 201.675 563.517, 266.609 425.094 C 269.035 419.920, 270.903 415.570, 270.759 415.425 C 270.614 415.281, 255.429 436.700, 237.015 463.024 M 763.928 590.508 C 754.893 603.425, 743.779 619.282, 739.231 625.747 C 734.684 632.211, 728.916 640.425, 726.414 644 C 723.912 647.575, 717.763 656.350, 712.749 663.500 C 707.735 670.650, 697.035 685.950, 688.971 697.500 C 680.906 709.050, 663.919 733.343, 651.221 751.484 C 624.861 789.145, 625.811 787.070, 638.662 778.914 C 703.275 737.909, 750.139 676.224, 772.341 602.958 C 775.553 592.359, 781.228 567.895, 780.617 567.284 C 780.474 567.140, 772.964 577.592, 763.928 590.508" stroke="none" fill="#ebf429" fill-rule="evenodd"/><path d="M 507.691 126.089 C 465.287 129.588, 423.397 149.886, 395 180.695 C 386.850 189.538, 376.858 203.683, 379.576 202.533 C 524.896 141.005, 683.972 178.697, 784.601 298.500 C 791 306.118, 800.932 319.378, 803.888 324.250 C 810.161 334.588, 805.008 322.446, 794.995 303.293 C 738.377 194.997, 619.779 118.305, 519.500 125.143 C 518.400 125.218, 513.086 125.644, 507.691 126.089 M 834.238 470.796 C 828.725 494.470, 820.049 511.745, 797.557 543.833 C 783.904 563.311, 781.088 567.937, 780.512 571.833 C 768.558 652.722, 706.149 741.155, 630.295 784.689 C 624.891 787.790, 623.570 792.112, 628.688 789.944 C 752.181 737.654, 840.189 603.757, 836.816 473.292 C 836.500 461.085, 836.500 461.085, 834.238 470.796 M 172.274 515.500 C 162.186 551.906, 164.985 585.883, 181.460 626.977 C 186.790 640.271, 192.583 652.842, 190.457 646.500 C 190.088 645.400, 188.487 640.712, 186.900 636.082 C 182.434 623.059, 180.957 613.265, 180.023 590.500 C 179.550 578.950, 178.417 564.381, 177.505 558.124 C 176.594 551.867, 175.543 537.917, 175.170 527.124 C 174.491 507.500, 174.491 507.500, 172.274 515.500" stroke="none" fill="#0a7a3f" fill-rule="evenodd"/><path d="M 501 173.590 C 472.274 176.091, 458.223 178.206, 438.031 183.067 C 308.040 214.363, 207.672 318.854, 181.632 450 C 174.259 487.134, 172.996 525.383, 177.935 562.002 C 179.071 570.421, 180.074 583.427, 180.166 590.905 C 180.331 604.500, 180.331 604.500, 181.081 587 C 182.887 544.851, 188.622 532.196, 237.798 461.846 C 256.884 434.542, 274.255 408.895, 276.400 404.851 C 286.339 386.115, 302.239 363.349, 316.453 347.500 C 320.399 343.100, 336.649 320.825, 352.564 298 C 384.532 252.151, 391.508 243.989, 410.044 230.742 C 485.998 176.463, 605.590 199.387, 690.750 284.551 C 699.138 292.939, 709.665 302.434, 714.143 305.651 C 746.697 329.037, 784.476 371.766, 796.987 399.348 C 822.463 455.513, 821.280 503.103, 793.281 548.435 C 788.229 556.615, 794.052 549.102, 804.356 534.147 C 820.457 510.779, 828.904 492.872, 834.381 470.500 C 836.829 460.500, 836.829 460.500, 837.205 470 C 837.535 478.375, 837.625 477.723, 837.959 464.500 C 838.769 432.443, 838.464 409.488, 837.135 402.500 C 833.599 383.901, 821.564 352.258, 812.382 337.416 C 809.972 333.520, 808 329.856, 808 329.273 C 808 328.691, 807.278 327.937, 806.396 327.599 C 805.451 327.236, 805.036 326.349, 805.385 325.440 C 805.711 324.591, 805.555 324.157, 805.039 324.476 C 804.523 324.795, 803.556 324.031, 802.892 322.778 C 797 311.673, 771.024 281.735, 752.500 264.700 C 684.790 202.432, 584.987 166.278, 501 173.590 M 250.494 736.500 C 269.473 760.685, 288.176 779.556, 311.027 797.576 C 319.187 804.010, 341.163 819, 342.437 819 C 342.852 819, 344.389 819.853, 345.852 820.895 C 380.558 845.607, 459.694 864.640, 504.544 859.060 C 552.234 853.128, 598.491 827.954, 621.734 795.284 C 623.384 792.965, 625.091 791.390, 625.527 791.784 C 625.964 792.178, 626.030 791.990, 625.674 791.368 C 625.318 790.745, 625.954 789.057, 627.086 787.618 C 628.219 786.178, 628.775 785.003, 628.323 785.007 C 627.870 785.011, 626.485 786.505, 625.243 788.328 C 589.157 841.335, 501.310 856.601, 420 823.995 C 416.975 822.782, 408.013 820.267, 400.085 818.406 C 345.645 805.626, 296.830 779.005, 254.535 739.028 C 247.307 732.196, 246.933 731.962, 250.494 736.500" stroke="none" fill="#4da340" fill-rule="evenodd"/></svg>